<?xml version="1.0" encoding="utf-8"?>
<!-- Generator: Adobe Illustrator 15.0.0, SVG Export Plug-In . SVG Version: 6.00 Build 0)  -->
<!DOCTYPE svg PUBLIC "-//W3C//DTD SVG 1.1//EN" "http://www.w3.org/Graphics/SVG/1.1/DTD/svg11.dtd">
<svg version="1.1" id="Layer" xmlns="http://www.w3.org/2000/svg" xmlns:xlink="http://www.w3.org/1999/xlink" x="0px" y="0px"
	 width="417.043px" height="254.936px" viewBox="0 0 417.043 254.936" enable-background="new 0 0 417.043 254.936"
	 xml:space="preserve">
<metadata><?xpacket begin="﻿" id="W5M0MpCehiHzreSzNTczkc9d"?>
<x:xmpmeta xmlns:x="adobe:ns:meta/" x:xmptk="Adobe XMP Core 5.0-c060 61.134777, 2010/02/12-17:32:00        ">
   <rdf:RDF xmlns:rdf="http://www.w3.org/1999/02/22-rdf-syntax-ns#">
      <rdf:Description rdf:about=""
            xmlns:dc="http://purl.org/dc/elements/1.1/">
         <dc:format>image/svg+xml</dc:format>
         <dc:title>
            <rdf:Alt>
               <rdf:li xml:lang="x-default">Phoenix Logo 2008</rdf:li>
            </rdf:Alt>
         </dc:title>
         <dc:creator>
            <rdf:Seq>
               <rdf:li>XenoAntares</rdf:li>
            </rdf:Seq>
         </dc:creator>
         <dc:rights>
            <rdf:Alt>
               <rdf:li xml:lang="x-default">This particular implementation of the artwork is licensed XI-2008 by XenoAntares under the „Creative Commons Namensnennung-Weitergabe unter gleichen Bedingungen Deutschland“-License Version 3.0 (CC-by-sa-3.0).</rdf:li>
            </rdf:Alt>
         </dc:rights>
         <dc:description>
            <rdf:Alt>
               <rdf:li xml:lang="x-default">Logo des deutschen Fernsehsenders Phoenix, siehe [[Phoenix (Fernsehsender)]].</rdf:li>
            </rdf:Alt>
         </dc:description>
      </rdf:Description>
      <rdf:Description rdf:about=""
            xmlns:xmp="http://ns.adobe.com/xap/1.0/"
            xmlns:xmpGImg="http://ns.adobe.com/xap/1.0/g/img/">
         <xmp:CreatorTool>Adobe Illustrator CS2</xmp:CreatorTool>
         <xmp:CreateDate>2008-12-08T15:23:58+01:00</xmp:CreateDate>
         <xmp:ModifyDate>2008-12-08T15:23:59+01:00</xmp:ModifyDate>
         <xmp:MetadataDate>2008-12-08T15:23:59+01:00</xmp:MetadataDate>
         <xmp:Thumbnails>
            <rdf:Alt>
               <rdf:li rdf:parseType="Resource">
                  <xmpGImg:width>256</xmpGImg:width>
                  <xmpGImg:height>156</xmpGImg:height>
                  <xmpGImg:format>JPEG</xmpGImg:format>
                  <xmpGImg:image>/9j/4AAQSkZJRgABAgEASABIAAD/7QAsUGhvdG9zaG9wIDMuMAA4QklNA+0AAAAAABAASAAAAAEA&#xA;AQBIAAAAAQAB/+4ADkFkb2JlAGTAAAAAAf/bAIQABgQEBAUEBgUFBgkGBQYJCwgGBggLDAoKCwoK&#xA;DBAMDAwMDAwQDA4PEA8ODBMTFBQTExwbGxscHx8fHx8fHx8fHwEHBwcNDA0YEBAYGhURFRofHx8f&#xA;Hx8fHx8fHx8fHx8fHx8fHx8fHx8fHx8fHx8fHx8fHx8fHx8fHx8fHx8fHx8f/8AAEQgAnAEAAwER&#xA;AAIRAQMRAf/EAaIAAAAHAQEBAQEAAAAAAAAAAAQFAwIGAQAHCAkKCwEAAgIDAQEBAQEAAAAAAAAA&#xA;AQACAwQFBgcICQoLEAACAQMDAgQCBgcDBAIGAnMBAgMRBAAFIRIxQVEGE2EicYEUMpGhBxWxQiPB&#xA;UtHhMxZi8CRygvElQzRTkqKyY3PCNUQnk6OzNhdUZHTD0uIIJoMJChgZhJRFRqS0VtNVKBry4/PE&#xA;1OT0ZXWFlaW1xdXl9WZ2hpamtsbW5vY3R1dnd4eXp7fH1+f3OEhYaHiImKi4yNjo+Ck5SVlpeYmZ&#xA;qbnJ2en5KjpKWmp6ipqqusra6voRAAICAQIDBQUEBQYECAMDbQEAAhEDBCESMUEFURNhIgZxgZEy&#xA;obHwFMHR4SNCFVJicvEzJDRDghaSUyWiY7LCB3PSNeJEgxdUkwgJChgZJjZFGidkdFU38qOzwygp&#xA;0+PzhJSktMTU5PRldYWVpbXF1eX1RlZmdoaWprbG1ub2R1dnd4eXp7fH1+f3OEhYaHiImKi4yNjo&#xA;+DlJWWl5iZmpucnZ6fkqOkpaanqKmqq6ytrq+v/aAAwDAQACEQMRAD8A9H63rbW7G2tj+9/3ZJ14&#xA;17D3yUYsJSY5JNNIxaR2dj1LEk5Y1Wt5N4nFXcm8TiruTeJxV3JvE4q7k3icVdybxOKu5N4nFXcm&#xA;8TiruTeJxV3JvE4q7k3icVdybxOKu5N4nFXcm8TiruTeJxV3JvE4q7k3icVdybxOKu5N4nFXcm8T&#xA;iruTeJxV3JvE4q7k3icVdybxOKu5N4nFXcm8Tiq5JZUYMjsrDoQSDiqf6Lrskki210eTNtHL3r4N&#xA;kJRbIyT7INjsVYFNI0kzyMas7FifcnLnHKzFXYq7FXYq7FXYq7FXYq7FXYq7FXYq7FXYq7FXYq7F&#xA;XYq7FXYq7FXYq7FXYq7FXYq7FXYq2rFWDA0INQffFWeQSepBHIduahqfMVylyAvxVgDfaPzy5x2s&#xA;VR+l6TNfOTXhCv25PfwHvgJplGNsgi0DS0WhiLnuzMa/hQZDiLZwBf8AoTSv+Wcfe39cHEV4Q0dE&#xA;0v8A5Zx97f1x4ivCHfoTS/8AlnH3t/XHiK8Id+hNL/5Zx97f1x4ivCHfoTS/+Wcfe39ceIrwh36E&#xA;0v8A5Zx97f1x4ivCHfoTS/8AlnH3t/XHiK8IcdF0v/lnH3t/XHiK8Ia/Qul/74H3t/XHiK8Id+hd&#xA;L/3wPvb+uPEV4Q79C6X/AL4H3t/XHiK8Ia/Qumf74H3t/XHiK8IcdG0z/fA+9v64eIrwhr9DaZ/v&#xA;gfe39cHEV4Q1+h9N/wB8D72/rh4ivCGv0Ppv++B97f1x4ivCHHR9N/3wPvP9cbK8Ia/RGm/74H3n&#xA;+uNleENHSNO/3wPvP9cbK8Id+iNO/wB8j7z/AFxsrwh36I07/fI+8/1xsrwhr9E6d/vkfef642V4&#xA;Q79E6d/vkfef642V4Q1+idO/3yPvP9cbKOEO/ROn/wC+R95/rjZTwh36K0//AHyPvP8AXGyjhCNS&#xA;Ro1VV+yoAA9hgZK8Uwfbo3hgSwRvtH55c47WKs4063W3soYgKUUFvdjufxyolvA2RGBLsVaOKuxV&#xA;2KuxV2KuxVo4q7FXYq7FWjirRxVrFWsKtHFWjihrFWjirWKuxV2KtYq7FWsVdhVrArlYqwI7Yqw5&#xA;vtH55a0NYqz6P+7X5D9WUuQuxV2KtHFXYq7FXYq7FXYq0cVdirsVdirRxVo4q1irWFWjirRxQ1ir&#xA;RxVrFXYq7FWsVdirWKuwq1gVrCrD2+0fnljQ1irPo/7tfkP1ZS5C7FXYq0cVdirsVfm/5o8/eeov&#xA;M2rxx+Y9USNL24VEW9uAoUSsAAA+wGKv0D8hzTT+RvLs00jSzS6ZZvLK5LMzNboWZmO5JPU4qnuK&#xA;tHFXYq7FXYq0cVaOKtYq1hVo4q0cUNYq0cVaxV2KuxVrFXYq1irsKtYFawqw9vtH55Y0NYqz6P8A&#xA;u1+Q/VlLkPEPzx/5yOvfyz82WmgwaFHqaXNhHfGd7hoSpkmmi4cRG/T0a1r3xViv/Q6+kr5WF2+h&#xA;F/Mkk0iJpqTN9XjiULwllnZAasSaIqnpuRtirA5v+c0fzTa69WLT9HjhHSAwXDAjf7TfWA1flTFX&#xA;p35af85g+XtdvYtL832S6DdTEJFqMcheyZzt+85APCPcll8SMVfQ6srKGUhlYVVhuCD3GKvzC82f&#xA;8pTrP/Mdc/8AJ5sVe5T/APOYfmLTdC0rRvK+jWsMWnWVvaSXeoc5pJHhiVGZI4niVBVdqlsVRnlj&#xA;/nNfzVDdxp5m0SzvbEkCSSw9S3nUE7sBI80bkD9n4a+OKvqPyZ508u+cvL9vr2gXIubCeqmo4yRy&#xA;L9qOVDurrXcfSNiDiqaX+oWOnWU99fzx2tnbIZLi4mYJGiKKlmY0AAxV81efv+c0LGzu5LPyTpS6&#xA;gkZI/Sl+XjhcjvHAnCQr7s6n2xVhFp/zmh+Z8dyXudO0i4gY1MIhuIyB4Iwnan+yBxV7j+U3/OTH&#xA;k7z5dR6TdxHQvMMu0NlO4khnPhBPRKt/kMoPhyxV7CcVYL+aP5w+UPy505J9ZmabULhSbLSoKNcT&#xA;U25UOyID1dtvCp2xV83a3/zml5+uLhv0Po+m6fa1qizia6mA8DIHhQ/8i8VTvyd/zmpe/WY4fOOh&#xA;xG2YgPe6WXRkHiYJmk5+9JB8sVfTfl/zDovmLR7bWNFu0vdNu15wXEZ2I6EEGhVlOxUioPXCh4t+&#xA;cP8Azkvffl950l8uQ6BFqCRwQz/WXuWiJMoJpxEb9KeOBLC9S/5zXvm0eMaZ5bii1lmb1WuZmktk&#xA;UH4eKoI5HJHXdae+Ksf07/nMz8yIbkNfaZpV3bE1aJI54Xp4K/quB9KnFX0V+Uv51+VvzIsZDYBr&#xA;HWLVQ17pMzBpEUmnqRsKepHXbkAKdwKipQ89/NT/AJykv/I/n3VPK8Xl6K+j0/0ON01y0Zf17eOf&#xA;7AjalPVp1xVm/lf80fMXmf8AKJ/PGkaFHNqqido9F9dqSLbysjKkgSvMopKjjudsVeOD/nNrVK7+&#xA;U4Kd/wDTX/6o4Fp9LeUvNGleavLlh5g0qT1LHUIhLHWnJD0eN6dGRgVb3GFXif5nf85X23lPzhee&#xA;X9H0ePWI9PpFd3bXBiAuQT6kaqI3r6f2Sa/aqO2Nqyf8kfzn8x/mZPfzS+X4tL0bTwEe+Fw0pe4a&#xA;hESKY0BonxMa7beOKvWsKsPb7R+eWNDWKs+j/u1+Q/VlLkPi3/nNX/yaelf9sO3/AOoy7xV5T+W3&#xA;5ceYfzA8zRaDoqKHKmW7u5KiK3gUgNI5G/UgADcnFX0v/wBCR+Uv0V6Z8x3/AOl+O916cP1bl/xg&#xA;pzp/z2xV80/mV+W/mH8vvMsuha0is3H1bO7jr6VxASQsiV3G4oVO4OKvqb/nEH8y7vzB5Vu/KuqT&#xA;Ga+8vembKRzVnsZKqqVO59Fl4/6pUdsVfIfmz/lKdZ/5jrn/AJPNir3L8k/+cV4/OfluDzN5n1C4&#xA;0/T70k6fZ2YQTyRKxX1XeVXVAxB4jgajfFWOfn7/AM4/SflotlqmmXkmoeX76T6v6s4UTQ3HEuqP&#xA;worB0UlWAHQg9qqp3/zhx5wvNO/MK48tNKTp+uW0jrATsLm1Uyq6/wDPISA+O3hiqZ/85g/mjeXu&#xA;vp5B0+YppunLHPq4Q09a5kAkjjanVYkKtT+Y7/ZGKvPfyW/IfX/zMuprhJxpnl+zcR3epOhkLSUD&#xA;ejClV5vQgtUgKD8gVXt2sf8AOEvlZtMYaN5gvodUC/C94sMtuzDsUjSJ1B8eTU98VfLfmryv5g8n&#xA;eZbnRNXia01XT5BUo2x6NHLG4pVWFGU/xxV9rfkv+c8Ov/lDdeY9flrf+WYpU1qQU5yi3i9RJgNh&#xA;ylTb3etMVfF3nLzZrnnbzZea7qJaa/1GX91AlWCKTxigiXrxQUVR3+eKvobyF/zhlDc6TFeedNVu&#xA;LW9nQP8Ao3T/AEwYeQqFkmkWUMwr8QVaDxPXFWBfnZ/zjdq35fWf6d0y7bVvLnNUnlZAk9szninq&#xA;haqyMTQOKb7EDaqqv/zit+Zl35c89Q+WrqZjofmJxB6JPwx3p2gkUHoXP7tqdaj+UYqof85b/wDk&#xA;4rn/AJgbX/iJxVJPyQ/JS/8AzM1a6DXX6P0TTeBv7wLzkLSV4RRKaDkwU1J2UeOwKr0r81P+cStP&#xA;8v8AlG813yrqV3eT6ZEbi8sr30mMkMa8pXiaNYqFFBbiQajYb0qq8N/Lfzfd+UPO+j6/byMgs7hP&#xA;rSg0527njPGf9aMkfjirLv8AnJ7/AMnl5l/6Mv8Aun2+Kvpn/nFb/wAktpH/ABnvP+ol8KHgn/OU&#xA;f5Tf4U80f4l0uHjoGvSMzogolveH4pI9hQLJu6f7IdBgSx78rvz28weQfLGv6HaKZl1GIvpLk7Wl&#xA;49EaUA9vTq1P5lXsTirBPL2g6x5o8xWejachudU1OcRx8iTVmNWd2NdlFWY+FTir9EPIPkrS/Jfl&#xA;Ow8u6aKw2cdJZiKNNM28srdd3benYbdBhQyDCrD2+0fnljQ1irPo/wC7X5D9WUuQ+Lf+c1f/ACae&#xA;lf8AbDt/+oy7xVn/APzhDp1knlfzJqSqPr017FbyNtURRRc0HtVpW/zGKvpQ4q+dP+c2dMsZPIeh&#xA;aoyD69b6oLaGTbkIri3leQeNOUCYq8p/5w7vJ4PzdaGM/u7vTLmKYf5KtHIP+GjGKvIvNn/KU6z/&#xA;AMx1z/yebFX6NflpbxW/5c+VoIhxjj0ixVR8rZMVef8A/OWttFL+S2oSOPit7qzkj6faMwj/AOIu&#xA;cVfMv/OLv/k9fLP/AEff90+4xVjP5wTzz/mt5weZizjWb+ME/wAkdw6IPoVQMVfbn/OO+mafp/5N&#xA;eWUsgONxbG5ncChaaZ2eTlXqQx4/IeGKvR8VfI//ADm9p1hHrvlbUYwov7m2uoLig3MUDxtFX/ZT&#xA;yYq83/LjULu2/Jz81Y4ZCqPb6OGXt8d/6TfekhGKvN9L1O+0rUrXU7CT0b6ylS4tZuKtwljYMjAM&#xA;GWqsK7jFWf8A/Qx351/9TRP/AMibb/qliqC1r89PzX1vSrrSdV8wS3enXiGK5t3ht+Loe1RGCPmD&#xA;irGvJ8kkXm3RJY2KyR39qyMOoImUg4q9R/5y3/8AJxXP/MDa/wDETir2T/nC+KMfllq0oUeo2tTK&#xA;zdyFtLYgfRyOEIe461Gkmj30ciho3t5VdTuCChBBxV+YWBL0n/nItmb84NaZiWZodOJJ3JJ022xV&#xA;9R/84rf+SW0j/jPef9RL4UM1/MvQfLWueRtY0/zLIsGjm2eW4u262/pDms6/5UZXkPHp3xV+cDhQ&#xA;xCnkoJ4kihI+WBL6d/5wv0PyzLPrmtSSrL5ktuFvDbMKGG0kFWlTf4vUccSafDx/ysIQX1PirWFW&#xA;Ht9o/PLGhrFWfR/3a/IfqylyHxb/AM5q/wDk09K/7Ydv/wBRl3irHv8AnHD85bb8uvMtzBq/M+Xd&#xA;YVEvXQF2gliJ9KcKOoHNg4G9N96AYq+yk/Nf8sn079JL5q0r6nx5mQ3kAIHgVLcuXbjStcVfH3/O&#xA;Sv512X5ha3aaboRY+W9HLmGdwUNzcSUDTcDQhFUcUqK9T3oFWa/84UeTrmTV9b84TRlbSCH9GWjn&#xA;o8sjJNNx/wBRUSv+tir5382f8pTrP/Mdc/8AJ5sVfo9+Xv8AygPlr/tlWP8A1DJirAP+cr//ACSW&#xA;r/8AGez/AOolMVfMH/OLv/k9fLP/AEff90+4xVMP+cqvI9z5d/NK71RYyNM8xD69ay/s+sAFuY6/&#xA;zCT4/kwxVmv/ADjH/wA5A6H5f0geSvNtyLKyikZ9H1JwTEglYvJBMw+wOZLKx23NSKDFX0TrP5u/&#xA;ljo+mvqN75n0426LyAguY7iR/ARxQl3c/wCqMVfDn52/mlN+Y3naXWEjeDSrZBa6VbSU5LApLcnA&#xA;JHORmLNTpsKmmKvc/wAhvydub/8AIbzMt2no33nWI/UOe1IrVW+pu1egacs3utDir5YVbrSNYC3V&#xA;sv1rT7ik9ncpyX1IX+KKWM9RVeLKcVfYf5fav/zi95u0eC5k0fQNI1QIv13TL6OCB45KfEI2lCLK&#xA;lejL260O2Ksb/NXz3/zjv5Rlt7Ly/wCUtD8y6i0gN2tukP1eGJT8QM6LIpkboAK0/a8Cqy/8qL7/&#xA;AJx28/SL+gvLFjZa7aKLmXT57ONZogjKPUSRQUZQ5FCGr0qBirw3/nLf/wAnFc/8wNr/AMROKvZv&#xA;+cMP/JXap/23J/8AqEtcIQ9x1b/jl3n/ABgk/wCIHFX5gYEvSP8AnIn/AMm9rP8Axg03/umW2Kvq&#xA;T/nFb/yS2kf8Z7z/AKiXwoeaf85dfmxzdfy90mb4E4XGvyIerbPDbH5bSP8A7HwOBXgvlL8uPNXm&#xA;vStb1PRrUz22g24ubw71ap/u4gAeT8Az8fBfGgKld+Wnn7U/InnGx8w2NXWFvTvbYGgntnI9WI/M&#xA;CqnswB7Yq/Q/Q9b03XdGs9Y0yYT2F/Es9tKO6OK7jsR0I7HChG4VYe32j88saGsVZ9H/AHa/Ifqy&#xA;lyHxb/zmr/5NPSv+2Hb/APUZd4q818q/k/5382eVLvzJ5cs/0lDY3TWt1ZQn/SRSNZA6RmnqD46U&#xA;X4vbFWPT+VPNFvc/VLjR76G63HoSW0yyVHX4StdsVek/lr/zjN+Yvm69hk1Kyl8v6HyBuL2+QxTF&#xA;K7iG3ekjMexIC++Kvt7yn5U0Typ5es9A0SD6vp1inCJerMSas7t+07sSzHxxV8FeZfyb/NafzHqs&#xA;8PlPVJIZby4eORbWQqytKxBBp0IxV94+R7W5tPJXl+1uo2hubfTbOKeFxRkdIEVlYHoQRQ4qwr/n&#xA;JTQda138o9U03RrKbUNQlmtWjtbdDJIwS4RmIVd9gK4q+eP+cdvyv/MXRPzj8v6pq/lzULDTrf65&#xA;693cW7xxpzsZ0XkxFBVmAHvir6r/ADL/AC38v/mD5Ym0LWFK1Pq2V4gHq284BCyJXr1oy9xt74q+&#xA;JfP/APzjv+Z3k+7kDaXLrGmAkxanp0bToUHeSNA0kR8eQp4E4qwi08o+a7y5+q2mi39zc8uPoRW0&#xA;zycj24qpNcVe8fk9/wA4m69qN/b6v59hOnaPERIujlv9KuKbhZeJ/cp/Nvz7UXrir6+gggt4I7eC&#xA;NYoIVWOKJAFVUUUVVA2AAG2Kvn/8/wD/AJxpPm68l80eUfTg8wSCt/p7kRxXZAADox+GOWgoa/C3&#xA;UkGpKr5S1ryD530S4e31bQb+zkQ8SZbeQKd6fC4HBh7qaYqnvk38j/zO82XaQ6fodxbWzH49Qvke&#xA;2tkFaE85AOdPBAx9sVfZ/wCTv5PaL+WugNaWz/XNXvCr6pqRXiZGWvFEXfjGlTQV8ScKvn//AJyb&#xA;/Ljz7r/5pT6hougX2o2LWdsi3NtA8kZZVPIclFKjAr1f/nFHyx5h8ufl3qNjr2nXGmXkmrzTRwXU&#xA;bRO0bW1socBqbFkYV9sKHr+pI8mnXSICzvDIqqOpJUgDFX55f8qY/Nn/AKlHVf8ApFk/pgSzz88/&#xA;yu/MXV/zP1XUNL8uahe2UsNgsdzDbu8bGPT7eNwGAp8LoVPuMVe0/le3nHyL/wA49RqugXs/meBr&#xA;pbPR/QkM3qzTuYmkQCojUHm3t7kYUPmS5/KL85tX1WS6vPLOqzX1/MZJ7meB15SytVnd2AUVY1JO&#xA;2BL7c/K38vdO8heTLLy/aUknQetqF0BT17pwPVk37bBV8FAwofLn55/848+ZdM86S3fk3RrnUNC1&#xA;Tlcxw2cRk+qyk/vYSFrxWp5J7Gg+zir0X/nFyT8yfLpufKHmfQNRtNFl53Ol3lxBIsUEv2pYmYii&#xA;rJ9pe3KvdsVfROFWHt9o/PLGhrFWfR/3a/IfqylyHxb/AM5q/wDk09K/7Ydv/wBRl3ir0r/nCX/l&#xA;Add/7ap/6hosVfRJxV2KuxV2KuxV2KtHFXYq7FXYq0cVaOKtYq1hVo4q0cUNYq0cVaxV2KuxVrFX&#xA;Yq1irsKtYFawqw9vtH55Y0NYqz6P+7X5D9WUuQxPzf8AlJ+XfnHUotT8y6LHqN9DCttHO8kyERK7&#xA;OEpG6DZpGPTviqYeT/InlPybYzWPlrTk020uJfXmiRpHDScQvKsjOfsqBiqenFXYq7FUFqes6bpk&#xA;Ye8mEfL7Cblm+SjfMXU6zFgFzNN+DTTymoi0p/x95e/nl/5FnMD+XtN3n5OZ/JOby+bv8feXv55f&#xA;+RZx/l7Td5+S/wAk5vL5uPn3y9/PL/wBx/l7Td5+S/yTm8vm1/j3y9/PL/wBx/l7Td5+S/yTm8vm&#xA;7/Hvl7+eX/gDj/L2m7z8l/knN5fN3+PfL388v/AHH+XtN3n5L/JOby+bv8eeX/55f+AOP8vabvPy&#xA;X+Sc3l82v8eeX/55f+AOP8vabvPyX+SM3l82v8d+X/55P+AOP8vabvPyX+SM3l82v8d6B/PJ/wAA&#xA;cf5e03efkv8AJGby+bv8daB/PJ/wBx/l7Td5+S/yRm8vm0fPWgfzyf8AAHH+XtN3n5L/ACRn8vm7&#xA;/HOg/wA8n/AHH+XtN3n5L/JGfy+bX+OdB/nk/wCAOP8AL2m7z8kfyRn8vm7/ABxoP88n/AHH+XtN&#xA;3n5L/JGfy+bX+ONB/nk/4A4/y9pu8/Jf5Iz+Xzd/jjQf55P+AOP8vabvPyX+SM/l83f440H+eT/g&#xA;Dh/l7Td5+S/yRn8vm1/jfQf55P8AgDg/l7Td5+S/yRn8vm7/ABvoX88n/AHD/L2m7z8l/kjP5fN3&#xA;+N9C/nk/4A4/y9pu8/Jf5Iz+Xza/xvoX88n/AABwfy9pu8/Jf5Iz+Xzd/jbQv5pP+AOH+XtN3n5L&#xA;/JGfy+aWt9o/PN86VrFWfR/3a/IfqylyF2KuxVo4q7FXYq8l80Xct1r160hJ9KVoUHgsZKgD7q55&#xA;72pmM9RMnoa+Wz2OgxiGGNdRfzTpPy31Aope7iViAWWjGh8K5s4+zmSt5BwT21C9olv/AJVtff8A&#xA;LZF/wLYf9DmT+eEfy1D+aXf8q3vv+WyL/gWx/wBDmT+eF/lqH80u/wCVb3v/AC2Rf8C2P+hzJ/PC&#xA;/wAtQ/ml3/Kt73/lsi/4Fsf9DmT+eF/lqH80u/5Vve/8tkX/AALY/wChzJ/PC/y1D+aWv+VcXv8A&#xA;y2Rf8C2H/Q5k/nhf5ah/NLv+VcXv/LZF/wAC2P8Aocyfzwv8tw/ml3/Kub3/AJbI/wDgWx/0OZP5&#xA;4X+W4fzS1/yrq9/5bI/+BbH/AEN5P54X+W4fzS7/AJV1e/8ALZH/AMC2P+hvJ/PC/wAtw/mlr/lX&#xA;d7/y1x/8C2P+hvJ/PC/y3D+aXf8AKvL3/lrj/wCBbH/Q3k/nhf5bh/NLv+VeXv8Ay1x/8C2P+hvJ&#xA;/PC/y3D+aWv+Ve3v/LXH/wAC2P8Aobyfzwv8tw/ml3/Kvbz/AJa4/wDgWx/0N5P54X+W4fzS7/lX&#xA;t5/y1x/8C2P+hvJ/PC/y3D+aXf8AKvbz/lrj/wCBbH/Q3k/nhf5bh/NLX/Kvrz/lrj/4Fsf9DeT+&#xA;eF/luH80u/5V9ef8tcf/AALY/wChvJ/PC/y3D+aXf8q+vP8Alrj/AOBbH/Q3k/nhf5bh/NLv+Vf3&#xA;n/LXH/wLY/6G8n88L/LcP5pa/wCVf3n/AC1x/wDAtj/obyfzwv8ALcP5pV2+0fnnZvKtYqz6P+7X&#xA;5D9WUuQuxV2KtHFXYq7FXj2u/wDHb1D/AJiZv+ThzzjXf38/68vve10n91D+qPuew56O8U7FWjir&#xA;sVdirsVaOKtHFWsVawq0cVaOKGsVaOKtYq7FXYq1irsVaxV2FWsCtYVYe4IdgdiCajLGhrFWfR/3&#xA;a/IfqylyF2KuxVo4q7FXYq8e13/jt6h/zEzf8nDnnGu/v5/15fe9rpP7qH9Ufc9hz0d4p2KtHFXY&#xA;q7FXYq0cVaOKtYq1hVo4q0cUNYq0cVaxV2KuxVrFXYq1irsKtYFawqk+v6VJFM11EvKGQ1en7LHr&#xA;X2OSiWucUmyTBn0f92vyH6spchdirsVaOKuxV2KvHtd/47eof8xM3/Jw55xrv7+f9eX3va6T+6h/&#xA;VH3PYc9HeKdirRxV2KuxV2KtHFWjirWKtYVaOKtHFDWKtHFWsVdirsVaxV2KtYq7CrWBWsKo/IpQ&#xA;cuj6ZI3Jrda/5NV/4iRhsseEIwAAADoOmBk7FXYq0cVdirsVePa7/wAdvUP+Ymb/AJOHPONd/fz/&#xA;AK8vve10n91D+qPuew56O8U7FWjirsVdirsVaOKtHFWsVawq0cVaOKGsVaOKtYq7FXYq1irsVaxV&#xA;2FWsCtYVR+RS7FXYq7FXYq0cVdirsVePa7/x29Q/5iZv+ThzzjXf38/68vve10n91D+qPuew56O8&#xA;U7FWjirsVdirsVaOKtHFWsVawq0cVaOKGsVaOKtYq7FXYq1irsVaxV2FWsCrokLuB274qjMCXYq7&#xA;FXYq7FWjirsVdirx7Xf+O3qH/MTN/wAnDnnGu/v5/wBeX3va6T+6h/VH3PYc9HeKdirRxV2KuxV2&#xA;KtHFWjirWKtYVaOKtHFDWKtHFWsVdirsVaxV2KtYq7CrhSu/T2wKiofT4/B9PjgS/wD/2Q==</xmpGImg:image>
               </rdf:li>
            </rdf:Alt>
         </xmp:Thumbnails>
      </rdf:Description>
      <rdf:Description rdf:about=""
            xmlns:xmpMM="http://ns.adobe.com/xap/1.0/mm/"
            xmlns:stRef="http://ns.adobe.com/xap/1.0/sType/ResourceRef#">
         <xmpMM:DocumentID>uuid:274771DA33C5DD118A83C78BA36173FB</xmpMM:DocumentID>
         <xmpMM:InstanceID>uuid:284771DA33C5DD118A83C78BA36173FB</xmpMM:InstanceID>
         <xmpMM:DerivedFrom rdf:parseType="Resource">
            <stRef:instanceID>uuid:bc1d234a-3d69-48cc-a727-3e1812c1a184</stRef:instanceID>
            <stRef:documentID>uuid:F8FF0DB0BDBCDD119B9FF228AE050ED5</stRef:documentID>
         </xmpMM:DerivedFrom>
      </rdf:Description>
      <rdf:Description rdf:about=""
            xmlns:xmpRights="http://ns.adobe.com/xap/1.0/rights/">
         <xmpRights:WebStatement>http://creativecommons.org/licenses/by-sa/3.0/de/deed.de</xmpRights:WebStatement>
      </rdf:Description>
      <rdf:Description rdf:about=""
            xmlns:xmpTPg="http://ns.adobe.com/xap/1.0/t/pg/"
            xmlns:stDim="http://ns.adobe.com/xap/1.0/sType/Dimensions#"
            xmlns:xmpG="http://ns.adobe.com/xap/1.0/g/">
         <xmpTPg:MaxPageSize rdf:parseType="Resource">
            <stDim:w>147.123664</stDim:w>
            <stDim:h>89.935768</stDim:h>
            <stDim:unit>Millimeters</stDim:unit>
         </xmpTPg:MaxPageSize>
         <xmpTPg:NPages>1</xmpTPg:NPages>
         <xmpTPg:HasVisibleTransparency>False</xmpTPg:HasVisibleTransparency>
         <xmpTPg:HasVisibleOverprint>False</xmpTPg:HasVisibleOverprint>
         <xmpTPg:PlateNames>
            <rdf:Seq>
               <rdf:li>Cyan</rdf:li>
               <rdf:li>Magenta</rdf:li>
               <rdf:li>Yellow</rdf:li>
               <rdf:li>Black</rdf:li>
            </rdf:Seq>
         </xmpTPg:PlateNames>
         <xmpTPg:SwatchGroups>
            <rdf:Seq>
               <rdf:li rdf:parseType="Resource">
                  <xmpG:groupName>Standard-Farbfeldgruppe</xmpG:groupName>
                  <xmpG:groupType>0</xmpG:groupType>
               </rdf:li>
            </rdf:Seq>
         </xmpTPg:SwatchGroups>
      </rdf:Description>
   </rdf:RDF>
</x:xmpmeta>
                                                                                                    
                                                                                                    
                                                                                                    
                                                                                                    
                                                                                                    
                                                                                                    
                                                                                                    
                                                                                                    
                                                                                                    
                                                                                                    
                                                                                                    
                                                                                                    
                                                                                                    
                                                                                                    
                                                                                                    
                                                                                                    
                                                                                                    
                                                                                                    
                                                                                                    
                                                                                                    
                           
<?xpacket end="w"?>
	</metadata>
<path id="Dark_Screen" fill="#C5D2D8" stroke="#C5D2D8" stroke-miterlimit="12" d="M391.086,200.872c0,12.703-10.297,23-23,23H23.5
	c-12.703,0-23-10.297-23-23V23.5c0-12.703,10.297-23,23-23h344.586c12.703,0,23,10.297,23,23V200.872z"/>
<g id="Orange_Arc">
	<g>
		
			<linearGradient id="XMLID_2_" gradientUnits="userSpaceOnUse" x1="114.5981" y1="55.5732" x2="504.4741" y2="55.5732" gradientTransform="matrix(1 0 0 -1 -87.835 197.2422)">
			<stop  offset="0" style="stop-color:#FFFFFF"/>
			<stop  offset="0.4171" style="stop-color:#FDFDFD"/>
			<stop  offset="0.6404" style="stop-color:#F7F8F9"/>
			<stop  offset="1" style="stop-color:#F2F4F6"/>
		</linearGradient>
		<path id="XMLID_6_" fill="url(#XMLID_2_)" d="M416.639,231.292c0,12.703-10.297,23-23,23H49.763c-12.703,0-23-10.297-23-23V52.046
			c0-12.703,10.297-23,23-23h343.876c12.703,0,23,10.297,23,23V231.292z"/>
	</g>
	<g>
		<defs>
			<path id="SVGID_1_" d="M416.639,231.292c0,12.703-10.297,23-23,23H49.763c-12.703,0-23-10.297-23-23V52.046
				c0-12.703,10.297-23,23-23h343.876c12.703,0,23,10.297,23,23V231.292z"/>
		</defs>
		<clipPath id="SVGID_2_">
			<use xlink:href="#SVGID_1_"  overflow="visible"/>
		</clipPath>
		<g clip-path="url(#SVGID_2_)">
			<path fill="#F59D2D" d="M440.086,165.372h-321c-7.18,0-13,5.819-13,13v129.5c0,7.18,5.82,13,13,13h321c7.18,0,13-5.82,13-13
				v-129.5C453.086,171.191,447.266,165.372,440.086,165.372L440.086,165.372z M119.087,309.872c-1.103,0-2-0.896-2-2v-129.5
				c0-1.104,0.897-2,2-2h321c1.105,0,2,0.896,2,2v129.5c0,1.104-0.895,2-2,2H119.087L119.087,309.872z"/>
		</g>
	</g>
</g>
<g id="Logotext">
	<g>
		<g>
			<path d="M61.877,85.275L61.877,85.275c-1.96,0.918-3.755,2.228-5.405,3.838c0-1.255,0-4.782,0-4.782H44.024v74.438h13.25
				c0,0,0-15.225,0-21.895c0.785,0.716,1.644,1.406,2.652,2.036c1.557,0.971,3.398,1.81,5.475,2.492
				c2.127,0.7,4.634,1.054,7.451,1.054c4.223,0,8.067-0.857,11.428-2.548c3.326-1.674,6.182-3.929,8.49-6.702
				c2.284-2.744,4.053-5.869,5.257-9.288c1.201-3.409,1.809-6.952,1.809-10.529c0-3.685-0.588-7.385-1.747-11
				c-1.17-3.649-2.923-6.943-5.208-9.79c-2.308-2.875-5.227-5.233-8.675-7.007c-3.484-1.792-7.514-2.7-11.979-2.7
				C68.737,82.894,65.254,83.695,61.877,85.275z M66.157,128.151L66.157,128.151c-1.801-0.834-3.388-2.004-4.717-3.478
				c-1.345-1.49-2.417-3.28-3.188-5.321c-0.774-2.049-1.166-4.312-1.166-6.725c0-2.174,0.367-4.303,1.09-6.329
				c0.718-2.016,1.739-3.809,3.034-5.331c1.283-1.508,2.838-2.74,4.621-3.663c1.73-0.895,3.675-1.349,5.781-1.349
				c2.166,0,4.171,0.47,5.959,1.396c1.838,0.953,3.436,2.229,4.747,3.795c1.333,1.593,2.39,3.43,3.141,5.458
				c0.748,2.021,1.126,4.112,1.126,6.212c0,2.523-0.417,4.835-1.239,6.873c-0.825,2.041-1.935,3.799-3.299,5.226
				c-1.362,1.424-2.938,2.541-4.684,3.318c-1.728,0.77-3.573,1.16-5.483,1.16C69.861,129.394,67.935,128.976,66.157,128.151z"/>
		</g>
		<g>
			<path d="M105.066,66.582v74.563h13.25v-30.79c0-4.826,1.039-8.496,3.088-10.907c1.996-2.349,4.588-3.491,7.924-3.491
				c2.608,0,4.585,0.526,5.879,1.563c1.415,1.135,2.418,2.425,3.066,3.943c0.679,1.593,1.076,3.217,1.181,4.826l0.174,4.161v30.695
				h13.25v-33.272c-0.063-3.151-0.364-5.889-0.898-8.177c-0.549-2.349-1.388-4.494-2.495-6.376
				c-1.964-3.292-4.629-5.878-7.928-7.696c-3.284-1.81-7.069-2.728-11.25-2.728l-2.476,0.099c-1.275,0.074-2.667,0.365-4.136,0.866
				c-1.471,0.501-2.997,1.29-4.536,2.342c-0.295,0.202-0.558,0.5-0.843,0.734c0-6.189,0-20.354,0-20.354L105.066,66.582
				L105.066,66.582z"/>
		</g>
		<g>
			<path d="M175.101,85.372L175.101,85.372c-3.447,1.625-6.48,3.808-9.015,6.486c-2.535,2.679-4.542,5.823-5.967,9.345
				c-1.426,3.527-2.149,7.274-2.149,11.138c0,3.586,0.655,7.2,1.946,10.741c1.293,3.545,3.182,6.782,5.614,9.622
				c2.444,2.854,5.465,5.213,8.979,7.008c3.564,1.821,7.63,2.745,12.086,2.745c4.457,0,8.541-0.94,12.137-2.796
				c3.543-1.828,6.564-4.204,8.98-7.063c2.396-2.833,4.266-6.049,5.559-9.558c1.293-3.512,1.949-7.047,1.949-10.508
				c0-3.99-0.738-7.834-2.194-11.425c-1.455-3.588-3.495-6.767-6.063-9.448c-2.571-2.684-5.626-4.835-9.081-6.396
				c-3.482-1.572-7.279-2.37-11.286-2.37C182.458,82.894,178.59,83.728,175.101,85.372z M180.401,128.032L180.401,128.032
				c-1.862-0.925-3.497-2.189-4.859-3.759c-1.38-1.588-2.457-3.402-3.202-5.392c-0.743-1.985-1.12-4.089-1.12-6.253
				c0-2.103,0.378-4.194,1.124-6.214c0.745-2.018,1.806-3.829,3.154-5.383c1.332-1.535,2.963-2.782,4.849-3.706
				c1.853-0.908,3.956-1.368,6.249-1.368s4.395,0.46,6.248,1.368c1.886,0.924,3.517,2.171,4.849,3.706
				c1.351,1.557,2.413,3.354,3.157,5.344c0.744,1.987,1.121,4.059,1.121,6.158c0,2.224-0.392,4.39-1.164,6.439
				c-0.769,2.042-1.868,3.863-3.267,5.415c-1.393,1.545-3.044,2.784-4.907,3.681c-1.826,0.88-3.857,1.326-6.037,1.326
				C184.304,129.394,182.22,128.936,180.401,128.032z"/>
		</g>
		<g>
			<path d="M234.829,85.172L234.829,85.172c-3.285,1.503-6.195,3.615-8.648,6.277c-2.443,2.649-4.401,5.826-5.821,9.441
				c-1.42,3.617-2.14,7.565-2.14,11.738c0,3.981,0.704,7.816,2.093,11.398c1.385,3.574,3.306,6.76,5.708,9.468
				c2.419,2.726,5.309,4.92,8.584,6.521c3.318,1.621,6.923,2.442,10.714,2.442c2.062,0,4.345-0.327,6.785-0.972
				c2.472-0.653,4.903-1.728,7.231-3.196c2.332-1.472,4.543-3.455,6.567-5.895l2.813-3.771l-2.121-1.042l-9.105-4.721l-1.035,1.127
				c-0.555,0.604-2.215,2.339-3.22,3.094c-2.065,1.555-4.542,2.311-7.565,2.311c-1.326,0-2.734-0.239-4.188-0.711
				c-1.433-0.464-2.829-1.221-4.153-2.249c-1.324-1.027-2.519-2.363-3.548-3.972c-0.636-0.993-1.147-2.176-1.6-3.443
				c4.726,0,40.006,0,40.006,0l0.129-1.66l0.192-2.333l0.086-3.059c0-4.121-0.738-8.001-2.197-11.535
				c-1.455-3.521-3.447-6.616-5.923-9.2c-2.481-2.589-5.386-4.646-8.632-6.111c-3.272-1.478-6.754-2.227-10.346-2.227
				C241.722,82.894,238.133,83.661,234.829,85.172z M235.693,100.181c1.255-1.259,2.729-2.297,4.384-3.084
				c1.592-0.756,3.385-1.14,5.329-1.14c1.89,0,3.671,0.385,5.296,1.146c1.678,0.786,3.164,1.822,4.416,3.079
				c1.245,1.25,2.245,2.714,2.973,4.354c0.42,0.947,0.707,1.902,0.923,2.859c-3.688,0-23.525,0-27.214,0
				c0.215-0.957,0.502-1.913,0.922-2.859C233.448,102.895,234.448,101.43,235.693,100.181z"/>
		</g>
		<g>
			<path d="M300.526,82.994h0.018c-1.266,0.073-2.68,0.362-4.201,0.858c-1.52,0.496-3.112,1.276-4.734,2.318
				c-0.419,0.269-0.802,0.652-1.203,0.977c0-0.202,0-2.815,0-2.815H277.78v56.813h13.25v-30.79c0-4.826,1.039-8.496,3.09-10.907
				c1.996-2.349,4.588-3.491,7.924-3.491c2.607,0,4.586,0.526,5.879,1.563c1.414,1.135,2.418,2.425,3.064,3.943
				c0.68,1.593,1.078,3.217,1.182,4.826l0.174,4.161v30.695h13.25v-33.272c-0.063-3.153-0.365-5.891-0.898-8.178
				c-0.547-2.347-1.387-4.492-2.492-6.375c-1.965-3.293-4.631-5.879-7.93-7.697c-3.285-1.81-7.07-2.728-11.25-2.728L300.526,82.994z
				"/>
		</g>
		<g>
			<rect x="328.883" y="84.332" width="13.264" height="56.813"/>
		</g>
		<g>
			<path d="M383.239,84.332c0,0-7.268,11.699-9.672,15.57c-2.422-3.866-9.752-15.57-9.752-15.57h-15.984
				c0,0,16.502,25.779,17.762,27.747c-1.252,1.983-18.357,29.066-18.357,29.066h15.504c0,0,8.385-13.193,10.854-17.081
				c2.516,3.87,11.1,17.081,11.1,17.081h15.59c0,0-17.215-27.115-18.463-29.081c1.229-1.964,17.367-27.732,17.367-27.732H383.239z"
				/>
		</g>
	</g>
</g>
</svg>
