<?xml version="1.0" encoding="UTF-8" standalone="no"?>
<!-- Created with Inkscape (http://www.inkscape.org/) -->
<svg xmlns:dc="http://purl.org/dc/elements/1.1/" xmlns:cc="http://creativecommons.org/ns#" xmlns:rdf="http://www.w3.org/1999/02/22-rdf-syntax-ns#" xmlns:svg="http://www.w3.org/2000/svg" xmlns="http://www.w3.org/2000/svg" xmlns:sodipodi="http://sodipodi.sourceforge.net/DTD/sodipodi-0.dtd" xmlns:inkscape="http://www.inkscape.org/namespaces/inkscape" width="668.53583" height="190.20341" viewBox="0 0 668.53583 190.20341" id="svg3191" version="1.1" inkscape:version="0.48.2 r9819" sodipodi:docname="Neues Dokument 3">
  <defs id="defs3193"/>
  <sodipodi:namedview id="base" pagecolor="#ffffff" bordercolor="#666666" borderopacity="1.0" inkscape:pageopacity="0.0" inkscape:pageshadow="2" inkscape:zoom="0.35" inkscape:cx="332.83745" inkscape:cy="-55.566134" inkscape:document-units="px" inkscape:current-layer="layer1" showgrid="false" fit-margin-top="0" fit-margin-left="0" fit-margin-right="0" fit-margin-bottom="0" inkscape:window-width="1280" inkscape:window-height="753" inkscape:window-x="-4" inkscape:window-y="-4" inkscape:window-maximized="1"/>
  <metadata id="metadata3196">
    <rdf:RDF>
      <cc:Work rdf:about="">
        <dc:format>image/svg+xml</dc:format>
        <dc:type rdf:resource="http://purl.org/dc/dcmitype/StillImage"/>
        <dc:title/>
      </cc:Work>
    </rdf:RDF>
  </metadata>
  <g inkscape:label="Ebene 1" inkscape:groupmode="layer" id="layer1" sodipodi:insensitive="true" transform="translate(-17.162554,-286.59263)">
    <g id="g76" transform="matrix(1.0013236,0,0,1.0013236,177.70491,-515.31938)" style="fill:#000000">
      <g id="g2147" style="fill:#000000">
        <path inkscape:connector-curvature="0" id="path4654" d="m 271.319,807.943 v 59.485 l 30.751,31.945 -30.751,31.942 v 59.489 l 87.266,-91.43 -87.266,-91.431 z" style="fill:#000000"/>
        <path inkscape:connector-curvature="0" id="path4656" d="m 195.456,867.848 c 0,-12.908 -7.292,-20.704 -24.533,-20.704 -3.752,0 -8.001,0.245 -10.138,0.49 v 42.135 c 1.889,0.245 5.674,0.49 9.21,0.49 15.564,0 25.461,-8.528 25.461,-22.411 m 48.974,113.753 h -44.51 l -37.711,-64.307 h -1.425 v 64.307 H 124.195 V 817.059 c 13.375,-0.979 30.502,-1.224 49.581,-1.224 37.411,0 59.226,13.945 59.226,48.85 0,22.165 -13.127,40.188 -34.258,45.547 4.22,6.328 8.22,12.418 12.224,18.508 l 33.462,52.861 z" style="fill:#000000"/>
        <path inkscape:connector-curvature="0" id="path4658" d="m -122.775,984.089 c -10.96,0 -22.472,-1.224 -32.614,-3.668 l 1.644,-36.052 c 9.046,3.412 22.476,6.96 33.714,6.96 13.54,0 23.214,-5.853 23.214,-17.558 0,-28.04 -62.134,-14.15 -63.504,-68.761 -0.548,-30.93 23.572,-51.36 63.255,-51.36 8.443,0 18.994,0.972 28.833,2.919 l -0.08,33.579 c -8.907,-2.682 -20.777,-5.133 -30.148,-5.133 -15.268,0 -22.666,6.828 -22.666,16.093 0,25.599 63.42,15.849 63.42,67.3 -10e-4,31.967 -24.585,55.681 -65.068,55.681" style="fill:#000000"/>
        <path inkscape:connector-curvature="0" id="path4660" d="M 78.371,817.077 62.416,918.974 46.466,817.077 H 38.081 17.962 9.603 L -6.348,918.974 -22.324,817.076 h -36.892 l 28.011,164.605 H -18.378 5.657 10.1 L 28.024,876.035 45.948,981.681 h 4.439 24.065 12.827 l 27.982,-164.605 h -36.89 z" style="fill:#000000"/>
        <path inkscape:connector-curvature="0" id="path4662" d="m 349.729,807.943 v 59.485 l 30.751,31.945 -30.751,31.942 v 59.489 l 87.269,-91.43 -87.269,-91.431 z" style="fill:#000000"/>
        <path inkscape:connector-curvature="0" id="path4664" d="m 470.05,800.852 c 20.583,0 37.272,17.259 37.272,38.551 0,21.296 -16.689,38.555 -37.272,38.555 -20.583,0 -37.247,-17.259 -37.247,-38.555 10e-4,-21.292 16.664,-38.551 37.247,-38.551 m 14.965,54.162 v -38.595 l -37.495,13.93 v 9.587 l 12.418,-4.64 v 29.008 l 25.077,-9.29 z m -14.965,-48.51 c -17.544,0 -31.796,14.731 -31.796,32.899 0,18.168 14.252,32.895 31.796,32.895 17.566,0 31.818,-14.727 31.818,-32.895 0,-18.168 -14.252,-32.899 -31.818,-32.899" style="fill:#000000"/>
      </g>
    </g>
  </g>
</svg>