<?xml version="1.0" encoding="UTF-8" standalone="no"?>
<!-- Created with Inkscape (http://www.inkscape.org/) -->
<svg xmlns:svg="http://www.w3.org/2000/svg" xmlns="http://www.w3.org/2000/svg" version="1.0" width="602.36218" height="461.48032" id="svg11712">
  <defs id="defs11714"/>
  <g id="layer1">
    <g id="g11753">
      <path d="M 312.57831,93.346033 C 342.01224,93.346033 354.36722,106.487 354.36722,127.01795 C 354.36722,149.7149 337.48626,163.63887 310.93932,163.63887 C 305.00433,163.63887 298.45435,162.94687 295.28636,162.94687 L 295.28636,94.73003 C 299.01635,94.008031 306.24233,93.346033 312.57831,93.346033 M 544.64076,44.16715 L 477.47792,68.302092 L 477.47792,84.537054 L 499.79287,76.419073 L 499.79287,125.48996 L 544.64076,110.09099 L 544.64076,44.16715 z M 317.4203,42.747153 C 284.81738,42.747153 255.42345,43.422151 232.5665,44.786148 L 232.5665,311.90451 L 295.28636,311.90451 L 295.28636,207.61276 L 297.72535,207.61276 L 362.0842,311.90451 L 438.45702,311.90451 L 381.01415,225.99472 C 374.19717,216.41074 367.33418,206.26976 360.1542,195.96379 C 396.28512,187.14181 420.07206,157.81588 420.07206,121.88597 C 420.07206,65.344099 381.37915,42.747153 317.4203,42.747153 M 127.72775,40.454158 C 59.757915,40.454158 19.86901,73.45008 19.86901,123.41396 C 19.86901,212.79775 128.01975,190.0988 128.01975,235.5337 C 128.01975,253.85865 111.60279,263.45263 88.704846,263.45263 C 68.895893,263.45263 46.722946,258.97264 31.444982,253.87865 L 28.20499,310.41152 C 45.688948,314.74151 64.827903,316.8915 83.754858,316.8915 C 153.00769,316.8915 195.14459,278.04459 195.14459,226.79672 C 195.14459,143.14691 86.95785,158.54388 86.95785,117.48098 C 86.95785,102.08201 99.063821,91.089038 125.28876,91.089038 C 141.20872,91.089038 158.32068,94.039031 173.55864,98.370021 L 177.08964,44.786148 C 160.16668,41.939155 142.16372,40.454158 127.72775,40.454158 M 517.88483,27.24019 C 549.36475,27.24019 574.81769,52.181131 574.81769,83.700056 C 574.81769,114.57698 549.36475,139.46792 517.88483,139.46792 C 486.4469,139.46792 460.98796,114.57698 460.98796,83.700056 C 460.98796,52.181131 486.4469,27.24019 517.88483,27.24019 M 517.88483,17.702213 C 481.03291,17.702213 451.19699,47.048143 451.19699,83.700056 C 451.19699,119.62997 481.03291,149.0779 517.88483,149.0779 C 554.81774,149.0779 584.64567,119.62997 584.64567,83.700056 C 584.64567,47.048143 554.81774,17.702213 517.88483,17.702213" id="path11279" style="fill:#000000;fill-opacity:1;fill-rule:nonzero;stroke:none"/>
      <path d="M 17.716511,443.7781 L 440.05251,443.7781 L 440.05251,340.43935 L 17.716511,340.43935 L 17.716511,443.7781 z" id="path11281" style="fill:#0f2995;fill-opacity:1;fill-rule:nonzero;stroke:none"/>
    </g>
  </g>
</svg>