<?xml version="1.0" encoding="UTF-8"?>
<!DOCTYPE svg PUBLIC "-//W3C//DTD SVG 1.1//EN" "http://www.w3.org/Graphics/SVG/1.1/DTD/svg11.dtd">
<svg width="343pt" height="84pt" viewBox="0 0 343 84" version="1.1" xmlns="http://www.w3.org/2000/svg">
<g id="#ffffffff">
</g>
<g id="#fa481cff">
<path fill="#fa481c" opacity="1.00" d=" M 187.56 0.00 L 221.21 0.00 C 221.24 4.98 221.25 9.96 221.19 14.95 C 227.86 15.06 234.54 14.97 241.22 15.00 C 241.23 22.07 241.23 29.14 241.22 36.21 C 234.55 36.25 227.88 36.20 221.22 36.25 C 221.16 51.50 221.29 66.75 221.41 82.00 C 213.62 82.43 205.69 83.33 197.98 81.66 C 192.58 80.65 188.21 75.67 188.14 70.13 C 187.40 58.86 187.57 47.55 187.59 36.25 C 182.99 36.22 178.39 36.22 173.79 36.22 C 173.76 29.15 173.77 22.08 173.78 15.00 C 178.40 15.00 183.02 15.07 187.64 14.89 C 187.52 9.93 187.57 4.96 187.56 0.00 Z"/>
<path fill="#fa481c" opacity="1.00" d=" M 39.91 13.89 C 53.19 12.39 67.41 13.02 79.41 19.44 C 85.96 22.70 91.40 29.31 91.01 36.95 C 90.81 52.04 91.34 67.12 91.22 82.21 C 80.00 82.24 68.79 82.22 57.58 82.22 C 57.56 75.89 57.54 69.55 57.60 63.21 C 52.41 64.60 47.18 66.02 42.30 68.28 C 39.42 69.82 36.20 72.39 36.63 76.05 C 37.19 78.47 38.98 80.29 40.45 82.19 C 29.96 82.28 19.48 82.19 9.00 82.24 C 5.10 82.70 2.34 79.05 1.16 75.78 C 0.21 70.75 0.44 64.99 3.79 60.83 C 8.97 53.83 18.07 51.85 26.11 50.20 C 31.97 49.71 37.70 48.33 43.53 47.62 C 47.37 47.16 51.19 46.41 54.86 45.16 C 57.53 44.10 58.20 40.59 56.83 38.27 C 55.74 36.11 53.18 35.31 50.97 34.86 C 46.89 34.25 42.32 34.41 38.83 36.86 C 36.90 38.29 36.47 40.79 36.01 42.98 C 25.26 43.01 14.51 43.00 3.77 42.99 C 4.80 35.44 8.22 27.98 14.27 23.16 C 21.39 17.10 30.89 15.08 39.91 13.89 Z"/>
<path fill="#fa481c" opacity="1.00" d=" M 140.18 22.95 C 145.22 14.10 157.10 11.65 166.19 15.03 C 166.27 22.10 166.22 29.16 166.22 36.22 C 160.62 36.37 154.78 35.62 149.42 37.66 C 145.02 39.50 142.50 44.25 142.48 48.89 C 142.35 60.00 142.51 71.12 142.40 82.23 C 131.03 82.12 119.65 82.44 108.28 82.07 C 108.41 59.82 108.33 37.56 108.32 15.31 C 118.78 15.35 129.24 15.33 139.70 15.32 C 139.63 17.87 139.43 20.48 140.18 22.95 Z"/>
<path fill="#fa481c" opacity="1.00" d=" M 273.41 16.66 C 286.58 12.54 301.19 12.17 314.27 16.84 C 321.89 19.30 328.69 24.20 333.27 30.79 C 340.23 40.69 341.51 53.46 340.20 65.21 C 320.48 65.24 300.75 65.24 281.03 65.21 C 280.97 70.80 281.01 76.40 281.00 82.00 C 272.64 81.91 264.27 82.18 255.93 81.88 C 253.77 80.26 252.66 77.70 251.40 75.41 C 245.75 65.18 245.01 52.59 248.33 41.49 C 251.57 29.55 261.72 20.19 273.41 16.66 M 287.61 35.53 C 282.51 37.20 279.69 42.63 279.93 47.80 C 289.17 47.91 298.39 47.57 307.62 47.57 C 306.88 44.56 306.42 41.28 304.21 38.92 C 300.33 34.00 293.14 33.93 287.61 35.53 Z"/>
</g>
</svg>