<?xml version="1.0" encoding="UTF-8" standalone="no"?>
<!-- Created with Inkscape (http://www.inkscape.org/) -->
<svg xmlns:dc="http://purl.org/dc/elements/1.1/" xmlns:cc="http://creativecommons.org/ns#" xmlns:rdf="http://www.w3.org/1999/02/22-rdf-syntax-ns#" xmlns:svg="http://www.w3.org/2000/svg" xmlns="http://www.w3.org/2000/svg" xmlns:sodipodi="http://sodipodi.sourceforge.net/DTD/sodipodi-0.dtd" xmlns:inkscape="http://www.inkscape.org/namespaces/inkscape" width="554.57031" height="360.42053" id="svg3097" version="1.1" inkscape:version="0.48.2 r9819" sodipodi:docname="SWRFernsehenRP_Logo.svg">
  <defs id="defs3099">
    <inkscape:perspective sodipodi:type="inkscape:persp3d" inkscape:vp_x="0 : 526.18109 : 1" inkscape:vp_y="0 : 1000 : 0" inkscape:vp_z="744.09448 : 526.18109 : 1" inkscape:persp3d-origin="372.04724 : 350.78739 : 1" id="perspective3105"/>
    <inkscape:perspective id="perspective3070" inkscape:persp3d-origin="0.5 : 0.33333333 : 1" inkscape:vp_z="1 : 0.5 : 1" inkscape:vp_y="0 : 1000 : 0" inkscape:vp_x="0 : 0.5 : 1" sodipodi:type="inkscape:persp3d"/>
  </defs>
  <sodipodi:namedview id="base" pagecolor="#ffffff" bordercolor="#666666" borderopacity="1.0" inkscape:pageopacity="0.0" inkscape:pageshadow="2" inkscape:zoom="1.4831917" inkscape:cx="277.28516" inkscape:cy="180.21027" inkscape:document-units="px" inkscape:current-layer="layer1" showgrid="false" inkscape:window-width="1280" inkscape:window-height="753" inkscape:window-x="-4" inkscape:window-y="-4" inkscape:window-maximized="1"/>
  <metadata id="metadata3102">
    <rdf:RDF>
      <cc:Work rdf:about="">
        <dc:format>image/svg+xml</dc:format>
        <dc:type rdf:resource="http://purl.org/dc/dcmitype/StillImage"/>
        <dc:title/>
      </cc:Work>
    </rdf:RDF>
  </metadata>
  <g inkscape:label="Ebene 1" inkscape:groupmode="layer" id="layer1" transform="translate(-91.286271,-303.58049)">
    <g transform="translate(-850.31042,222.81927)" id="g3038" style="fill:#000000;stroke:#000000">
      <g id="g2999" style="fill:#000000;stroke:#000000">
        <g id="g2942" style="fill:#000000;fill-opacity:1;stroke:#000000;stroke-opacity:1" transform="matrix(1.5211409,0,0,1.535058,455.45179,-426.06801)">
          <path d="m 331.1673,465.72325 0,15.22463 17.88175,0 0,7.36096 -17.88175,0 0,21.54428 -8.5459,0 0,-51.49083 27.86394,0 0,7.36096 z" style="font-size:73.53781128000000000px;font-style:normal;font-variant:normal;font-weight:bold;font-stretch:normal;text-align:start;line-height:100%;writing-mode:lr-tb;text-anchor:start;fill:#000000;fill-opacity:1;stroke:#000000;stroke-opacity:1;font-family:Segoe Media Center Semibold;-inkscape-font-specification:Segoe Media Center Semibold Bold" id="path2832"/>
          <path d="m 355.82119,509.85312 0,-51.49083 27.86394,0 0,7.36096 -19.31804,0 0,14.50648 17.95357,0 0,7.32506 -17.95357,0 0,14.93737 20.50297,0 0,7.36096 z" style="font-size:73.53781128000000000px;font-style:normal;font-variant:normal;font-weight:bold;font-stretch:normal;text-align:start;line-height:100%;writing-mode:lr-tb;text-anchor:start;fill:#000000;fill-opacity:1;stroke:#000000;stroke-opacity:1;font-family:Segoe Media Center Semibold;-inkscape-font-specification:Segoe Media Center Semibold Bold" id="path2834"/>
          <path sodipodi:nodetypes="cccccccssscccccccsssccc" d="m 419.69998,509.85312 c -4.79816,-6.81162 -9.85547,-14.31088 -14.92071,-20.91528 l -4.35062,0.0173 0,20.89795 -8.5459,0 0,-51.49083 14.62501,0 c 5.40998,5e-5 9.59315,1.23286 12.54954,3.69843 2.95632,2.46567 4.43449,5.86488 4.43453,10.19763 -4e-5,3.49499 -0.96953,6.49922 -2.90848,9.01269 -1.93902,2.51353 -3.11901,3.67701 -6.49548,5.20653 l 0,0.14363 15.77383,23.23192 -10.16172,0 0,3e-5 z m -19.27133,-44.34531 0,16.26593 4.67873,0 c 2.77679,0 5.03894,-0.81387 6.78645,-2.44169 1.74745,-1.62775 2.62119,-3.71037 2.62122,-6.24784 -3e-5,-2.36983 -0.80196,-4.22503 -2.40578,-5.5656 -1.60388,-1.34049 -3.88996,-2.01076 -6.85826,-2.0108 l -4.82236,0 z" style="font-size:73.53781128000000000px;font-style:normal;font-variant:normal;font-weight:bold;font-stretch:normal;text-align:start;line-height:100%;writing-mode:lr-tb;text-anchor:start;fill:#000000;fill-opacity:1;stroke:#000000;stroke-opacity:1;font-family:Segoe Media Center Semibold;-inkscape-font-specification:Segoe Media Center Semibold Bold" id="path2836"/>
          <path sodipodi:nodetypes="ccccccccccccc" d="m 464.11147,509.85312 -21.59099,-36.09747 c -0.98148,-1.57987 -1.5919,-2.75284 -1.83126,-3.5189 l 0.21544,39.61637 -8.40227,0 0,-51.49083 10.80805,0 20.72921,35.2357 c 1.0293,1.69961 1.74744,2.92045 2.15443,3.66252 l -0.25135,-38.89822 8.40227,0 0,51.49083 -10.23353,0 z" style="font-size:73.53781128000000000px;font-style:normal;font-variant:normal;font-weight:bold;font-stretch:normal;text-align:start;line-height:100%;writing-mode:lr-tb;text-anchor:start;fill:#000000;fill-opacity:1;stroke:#000000;stroke-opacity:1;font-family:Segoe Media Center Semibold;-inkscape-font-specification:Segoe Media Center Semibold Bold" id="path2838"/>
          <path d="m 482.44783,507.7346 0,-9.33586 c 1.53204,1.46024 3.54283,2.66911 6.0324,3.62662 2.48955,0.95753 4.88336,1.4363 7.18143,1.43629 2.75286,10e-6 4.81752,-0.53262 6.19398,-1.59787 1.37642,-1.06523 2.06464,-2.6631 2.06466,-4.7936 -2e-5,-1.79534 -0.68226,-3.42313 -2.04671,-4.88337 -1.36449,-1.46021 -4.06949,-3.26753 -8.11501,-5.42198 -3.85404,-2.03471 -6.73259,-4.20111 -8.63566,-6.49919 -1.90309,-2.29802 -2.85462,-5.08681 -2.85462,-8.36636 0,-4.26094 1.6218,-7.72597 4.86542,-10.39512 3.2436,-2.66904 7.43874,-4.00359 12.58545,-4.00364 4.38064,5e-5 8.10301,0.65835 11.16712,1.97489 l 0,8.97678 c -3.06411,-2.44164 -6.76254,-3.66248 -11.09531,-3.66252 -2.56139,4e-5 -4.60211,0.59849 -6.12217,1.79535 -1.52008,1.19695 -2.28011,2.75292 -2.2801,4.66793 -1e-5,1.84327 0.50269,3.39326 1.5081,4.64997 1.00539,1.25679 3.49494,2.93843 7.46868,5.04496 4.52428,2.36989 7.77985,4.73976 9.76675,7.10961 1.98682,2.36989 2.98025,5.09883 2.98029,8.18682 -4e-5,4.42856 -1.59192,7.95344 -4.77565,10.57466 -3.18379,2.62122 -7.72006,3.93183 -13.60881,3.93183 -2.10656,0 -4.38068,-0.30521 -6.82235,-0.91563 -2.44169,-0.61043 -4.26099,-1.31061 -5.45789,-2.10057 z" style="font-size:73.53781128000000000px;font-style:normal;font-variant:normal;font-weight:bold;font-stretch:normal;text-align:start;line-height:100%;writing-mode:lr-tb;text-anchor:start;fill:#000000;fill-opacity:1;stroke:#000000;stroke-opacity:1;font-family:Segoe Media Center Semibold;-inkscape-font-specification:Segoe Media Center Semibold Bold" id="path2840"/>
          <path d="m 519.56293,509.85312 0,-51.49083 27.86393,0 0,7.36096 -19.31804,0 0,14.50648 17.95357,0 0,7.32506 -17.95357,0 0,14.93737 20.50298,0 0,7.36096 z" style="font-size:73.53781128000000000px;font-style:normal;font-variant:normal;font-weight:bold;font-stretch:normal;text-align:start;line-height:100%;writing-mode:lr-tb;text-anchor:start;fill:#000000;fill-opacity:1;stroke:#000000;stroke-opacity:1;font-family:Segoe Media Center Semibold;-inkscape-font-specification:Segoe Media Center Semibold Bold" id="path2842"/>
          <path d="m 587.73401,509.85312 0,-22.29833 -24.05778,0 0,22.29833 -8.54589,0 0,-51.49083 8.54589,0 0,21.652 24.05778,0 0,-21.652 8.58181,0 0,51.49083 z" style="font-size:73.53781128000000000px;font-style:normal;font-variant:normal;font-weight:bold;font-stretch:normal;text-align:start;line-height:100%;writing-mode:lr-tb;text-anchor:start;fill:#000000;fill-opacity:1;stroke:#000000;stroke-opacity:1;font-family:Segoe Media Center Semibold;-inkscape-font-specification:Segoe Media Center Semibold Bold" id="path2844"/>
          <path d="m 605.10736,509.85312 0,-51.49083 27.86393,0 0,7.36096 -19.31804,0 0,14.50648 17.95357,0 0,7.32506 -17.95357,0 0,14.93737 20.50298,0 0,7.36096 z" style="font-size:73.53781128000000000px;font-style:normal;font-variant:normal;font-weight:bold;font-stretch:normal;text-align:start;line-height:100%;writing-mode:lr-tb;text-anchor:start;fill:#000000;fill-opacity:1;stroke:#000000;stroke-opacity:1;font-family:Segoe Media Center Semibold;-inkscape-font-specification:Segoe Media Center Semibold Bold" id="path2846"/>
          <path id="path2859" style="font-size:73.53781128000000000px;font-style:normal;font-variant:normal;font-weight:bold;font-stretch:normal;text-align:start;line-height:100%;writing-mode:lr-tb;text-anchor:start;fill:#000000;fill-opacity:1;stroke:#000000;stroke-opacity:1;font-family:Segoe Media Center Semibold;-inkscape-font-specification:Segoe Media Center Semibold Bold" d="m 672.11147,509.85312 -21.59099,-36.09747 c -0.98148,-1.57987 -1.5919,-2.75284 -1.83126,-3.5189 l 0.21544,39.61637 -8.40227,0 0,-51.49083 10.80805,0 20.72921,35.2357 c 1.0293,1.69961 1.74744,2.92045 2.15443,3.66252 l -0.25135,-38.89822 8.40227,0 0,51.49083 -10.23353,0 z" sodipodi:nodetypes="ccccccccccccc"/>
        </g>
        <g id="g2941" transform="matrix(0.69913205,0,0,0.69913205,374.61751,16.729156)" style="fill:#000000;stroke:#000000">
          <g transform="matrix(3.543307,0,0,3.543307,793.27786,62.494194)" style="fill:#000000;fill-rule:evenodd;stroke:#000000" id="g1939">
            <path d="m 138.323,29.8199 c 0,-4.6562 -2.7403,-7.4682 -9.193,-7.4682 -1.4141,0 -3.0051,0.0884 -3.8007,0.1763 l 1e-4,15.1991 c 0.707,0.0877 2.1214,0.1756 3.4471,0.1756 5.834,-1e-4 9.5465,-3.0749 9.5465,-8.0827 l 0,-10e-5 z m 18.355,41.0329 -16.683,0 -14.1353,-23.1982 -0.5303,0 0,23.1982 -13.7229,0 0,-59.3537 c 5.014,-0.3528 11.4354,-0.4412 18.5843,-0.4412 14.0278,0 22.2082,5.0293 22.2082,17.62 1e-4,7.9948 -4.9247,14.4963 -12.844,16.4291 1.5837,2.2841 3.0795,4.4807 4.5754,6.677 l 12.5476,19.0688 0,0 z" style="fill:#000000;stroke:#000000" id="_47386248"/>
            <path d="m 19.0518,71.7497 c -4.1272,0 -8.4493,-0.4409 -12.2254,-1.3227 L 7.4342,57.4222 c 3.337,1.2314 8.3684,2.5101 12.6737,2.5101 5.0343,0 8.6557,-2.111 8.6557,-6.333 C 28.7636,43.4842 5.4498,48.4951 5,28.7956 4.7453,17.6389 13.7829,10.2691 28.6749,10.2691 c 3.1622,0 7.1139,0.3509 10.8022,1.0525 l -0.0285,12.1136 c -3.337,-0.9675 -7.7872,-1.8528 -11.3035,-1.8528 -5.7408,0 -8.4794,2.4635 -8.4794,5.806 0,9.2351 23.7634,5.7172 23.7634,24.2759 0,11.5312 -9.221,20.0854 -24.3773,20.0854 l 0,0 0,0 z" style="fill:#000000;stroke:#000000" id="_47674960"/>
            <polygon points="92.964,70.8816 97.7694,70.8816 108.261,11.5056 94.4367,11.5056 94.4367,11.5056 88.4544,48.2621 82.4724,11.5056 79.3353,11.5056 71.7915,11.5056 68.6546,11.5056 62.6724,48.2621 56.6902,11.5056 42.8657,11.5056 53.3575,70.8816 58.1628,70.8816 67.182,70.8816 68.8436,70.8816 75.5633,32.7718 82.2833,70.8816 83.9448,70.8816 " style="fill:#000000;stroke:#000000" id="_159878992"/>
          </g>
          <g transform="matrix(3.543307,0,0,3.543307,793.27786,62.494194)" style="fill:#000000;fill-rule:evenodd;stroke:#000000" id="g1944">
            <polygon points="166.761,8.2109 166.761,29.6681 178.284,41.1911 166.761,52.7142 166.761,74.1714 199.471,41.1911 166.761,8.2109 " style="fill:#000000;stroke:#000000" id="_47267192"/>
            <polygon points="196.151,8.2109 196.151,29.6681 207.674,41.1911 196.151,52.7142 196.151,74.1714 228.861,41.1911 196.151,8.2109 " style="fill:#000000;stroke:#000000" id="_46559656"/>
          </g>
        </g>
      </g>
      <g transform="matrix(0.48681651,0,0,0.46100551,647.98185,118.60567)" id="g3034" style="fill:#000000;stroke:#000000">
        <path id="path3575" d="m 1618.3688,585.30619 0,110.38253 18.7833,0 0,-39.72027 13.44,0 c 13.0091,4e-5 23.4779,-3.3968 31.3783,-10.19587 7.9002,-6.79894 11.8314,-15.5525 11.8315,-26.22573 0,-10.92964 -3.4618,-19.37368 -10.4139,-25.3261 -6.9524,-5.95224 -16.9807,-8.91446 -30.0424,-8.91456 l -34.9768,0 z m 18.7833,15.45736 12.9766,0 c 7.7422,10e-5 13.6663,1.68249 17.7746,5.04342 4.1081,3.3611 6.1611,8.15807 6.1612,14.3669 -10e-5,6.67079 -2.1987,11.71955 -6.5701,15.1575 -4.3716,3.43804 -10.4432,5.15249 -18.2381,5.15245 l -12.1042,0 0,-39.72027 z" style="font-size:183.06677246000001000px;font-style:normal;font-variant:normal;font-weight:bold;font-stretch:normal;text-align:start;line-height:100%;writing-mode:lr-tb;text-anchor:start;fill:#000000;fill-opacity:1;stroke:#000000;stroke-width:7.85136365999999870;stroke-linecap:butt;stroke-linejoin:miter;stroke-miterlimit:4;stroke-opacity:1;font-family:Segoe Media Center Semibold;-inkscape-font-specification:Segoe Media Center Semibold Bold" sodipodi:nodetypes="cccccsssccccsssccc"/>
        <path id="path2976" style="fill:#000000;fill-rule:evenodd;stroke:#000000" d="m 1568.7527,617.93805 c 0,-9.23759 -5.4366,-14.8164 -18.2383,-14.8164 -2.8055,0 -5.9619,0.17538 -7.5404,0.34976 l 2e-4,30.15399 c 1.4027,0.17399 4.2088,0.34838 6.8388,0.34838 11.5743,-2e-4 18.9397,-6.1004 18.9397,-16.03553 l 0,-2e-4 z m 36.415,81.40649 -33.0979,0 -28.0435,-46.02365 -1.0521,0 0,46.02365 -27.2253,0 0,-117.75372 c 9.9475,-0.69993 22.6871,-0.87531 36.87,-0.87531 27.8302,0 44.0596,9.97779 44.0596,34.95689 2e-4,15.86114 -9.7703,28.75968 -25.4816,32.59422 3.1419,4.5315 6.1095,8.8894 9.0773,13.24672 l 24.8935,37.8312 0,0 z"/>
      </g>
    </g>
  </g>
</svg>